<svg width="24" height="25" viewBox="0 0 24 25" fill="none" xmlns="http://www.w3.org/2000/svg">
<path d="M19 7.0459H16V6.0459C16 4.98503 15.5786 3.96762 14.8284 3.21747C14.0783 2.46733 13.0609 2.0459 12 2.0459C10.9391 2.0459 9.92172 2.46733 9.17157 3.21747C8.42143 3.96762 8 4.98503 8 6.0459V7.0459H5C4.73478 7.0459 4.48043 7.15126 4.29289 7.33879C4.10536 7.52633 4 7.78068 4 8.0459V19.0459C4 19.8415 4.31607 20.6046 4.87868 21.1672C5.44129 21.7298 6.20435 22.0459 7 22.0459H17C17.7956 22.0459 18.5587 21.7298 19.1213 21.1672C19.6839 20.6046 20 19.8415 20 19.0459V8.0459C20 7.78068 19.8946 7.52633 19.7071 7.33879C19.5196 7.15126 19.2652 7.0459 19 7.0459ZM10 6.0459C10 5.51547 10.2107 5.00676 10.5858 4.63168C10.9609 4.25661 11.4696 4.0459 12 4.0459C12.5304 4.0459 13.0391 4.25661 13.4142 4.63168C13.7893 5.00676 14 5.51547 14 6.0459V7.0459H10V6.0459ZM18 19.0459C18 19.3111 17.8946 19.5655 17.7071 19.753C17.5196 19.9405 17.2652 20.0459 17 20.0459H7C6.73478 20.0459 6.48043 19.9405 6.29289 19.753C6.10536 19.5655 6 19.3111 6 19.0459V9.0459H8V10.0459C8 10.3111 8.10536 10.5655 8.29289 10.753C8.48043 10.9405 8.73478 11.0459 9 11.0459C9.26522 11.0459 9.51957 10.9405 9.70711 10.753C9.89464 10.5655 10 10.3111 10 10.0459V9.0459H14V10.0459C14 10.3111 14.1054 10.5655 14.2929 10.753C14.4804 10.9405 14.7348 11.0459 15 11.0459C15.2652 11.0459 15.5196 10.9405 15.7071 10.753C15.8946 10.5655 16 10.3111 16 10.0459V9.0459H18V19.0459Z" fill="#51AA1B"/>
</svg>
